<svg width="512" height="512" viewBox="0 0 512 512" fill="none" xmlns="http://www.w3.org/2000/svg">
<path d="M36.4986 32.4896C36.552 30.7587 38.6304 29.9091 39.881 31.1069L173.554 159.136C174.523 160.064 174.321 161.664 173.153 162.323L33.0905 241.258C31.7333 242.023 30.0614 241.011 30.1095 239.454L36.4986 32.4896Z" fill="#73AD38"/>
<path d="M483.506 32.6383C483.452 30.8847 481.327 30.0456 480.089 31.2892L352.816 159.175C351.896 160.1 352.093 161.645 353.218 162.308L486.873 241.155C488.23 241.956 489.937 240.946 489.888 239.371L483.506 32.6383Z" fill="#73AD38"/>
<path d="M260 149C309.528 149.481 474.207 265.574 486.743 274.462C487.27 274.836 487.5 275.384 487.5 276.03V326C487.5 327.105 486.605 328 485.5 328H39C37.8954 328 37 327.105 37 326V276.01C37 275.375 37.2217 274.836 37.734 274.461C49.9225 265.524 210.467 148.519 260 149Z" fill="#1C8539"/>
<path d="M37.0008 355H487.501C487.501 355 487.501 420.5 460.001 436C432.501 451.5 376.501 456.5 262.501 457C148.501 457.5 85.5008 450.5 61.0008 436C36.5008 421.5 37.0008 355 37.0008 355Z" fill="#DB66C8"/>
</svg>
